<?xml version="1.0" encoding="UTF-8"?>
<!DOCTYPE svg PUBLIC "-//W3C//DTD SVG 1.1//EN" "http://www.w3.org/Graphics/SVG/1.1/DTD/svg11.dtd">
<svg xmlns="http://www.w3.org/2000/svg" version="1.1" width="512px" height="512px" style="shape-rendering:geometricPrecision; text-rendering:geometricPrecision; image-rendering:optimizeQuality; fill-rule:evenodd; clip-rule:evenodd" xmlns:xlink="http://www.w3.org/1999/xlink">
<g><path style="opacity:0.959" fill="#010101" d="M 251.5,-0.5 C 254.167,-0.5 256.833,-0.5 259.5,-0.5C 330.439,36.971 401.439,74.471 472.5,112C 475.108,113.378 476.608,115.545 477,118.5C 479.627,193.029 465.96,264.362 436,332.5C 402.916,398.919 355.082,452.085 292.5,492C 281.437,498.526 270.437,505.026 259.5,511.5C 256.833,511.5 254.167,511.5 251.5,511.5C 126.907,445.118 55.7407,341.451 38,200.5C 34.8091,172.918 33.4758,145.252 34,117.5C 34.7739,115.061 36.2739,113.227 38.5,112C 109.561,74.471 180.561,36.971 251.5,-0.5 Z"/></g>
<g><path style="opacity:1" fill="#e7e5fa" d="M 254.5,17.5 C 255.496,33.3246 255.83,49.3246 255.5,65.5C 202.282,92.4435 149.282,119.944 96.5,148C 95.2986,148.903 94.4652,150.069 94,151.5C 94.6258,214.671 109.959,274.004 140,329.5C 168.713,376.713 206.547,414.713 253.5,443.5C 254.804,451.769 255.47,460.269 255.5,469C 255.5,477.34 255.166,485.507 254.5,493.5C 136.423,428.807 69.5898,329.14 54,194.5C 51.0607,171.002 50.2274,147.502 51.5,124C 119.22,88.4745 186.887,52.9745 254.5,17.5 Z"/></g>
<g><path style="opacity:1" fill="#a8a6b6" d="M 254.5,17.5 C 254.56,16.9569 254.893,16.6236 255.5,16.5C 323.625,52.1319 391.625,87.9652 459.5,124C 462.446,189.158 451.612,251.992 427,312.5C 390.83,393.821 333.33,454.155 254.5,493.5C 255.166,485.507 255.5,477.34 255.5,469C 255.47,460.269 254.804,451.769 253.5,443.5C 255.527,443.662 257.527,443.495 259.5,443C 365.503,373.332 417.17,274.998 414.5,148C 361.729,119.949 308.729,92.4489 255.5,65.5C 255.83,49.3246 255.496,33.3246 254.5,17.5 Z"/></g>
<g><path style="opacity:1" fill="#030202" d="M 255.5,65.5 C 308.729,92.4489 361.729,119.949 414.5,148C 417.17,274.998 365.503,373.332 259.5,443C 257.527,443.495 255.527,443.662 253.5,443.5C 206.547,414.713 168.713,376.713 140,329.5C 109.959,274.004 94.6258,214.671 94,151.5C 94.4652,150.069 95.2986,148.903 96.5,148C 149.282,119.944 202.282,92.4435 255.5,65.5 Z"/></g>
<g><path style="opacity:1" fill="#be7d5a" d="M 254.5,83.5 C 255.833,197.5 255.833,311.5 254.5,425.5C 173.533,371.895 126.366,296.562 113,199.5C 110.745,185.879 109.912,172.213 110.5,158.5C 158.239,132.964 206.239,107.964 254.5,83.5 Z"/></g>
<g><path style="opacity:1" fill="#9a6549" d="M 254.5,83.5 C 256.089,82.3789 257.756,82.5456 259.5,84C 306.5,108.833 353.5,133.667 400.5,158.5C 399.708,239.406 373.208,310.406 321,371.5C 301.481,392.807 279.647,411.14 255.5,426.5C 254.893,426.376 254.56,426.043 254.5,425.5C 255.833,311.5 255.833,197.5 254.5,83.5 Z"/></g>
</svg>
